<svg xmlns="http://www.w3.org/2000/svg" xml:space="preserve" width="24" height="24" style="fill-rule:evenodd;clip-rule:evenodd;stroke-linejoin:round;stroke-miterlimit:2" viewBox="0 0 60 60"><path d="M0 0h60v60H0z" style="fill:none"/><path d="M8.846 18.973C4.25 18.526.652 14.646.652 9.933.652 4.92 4.722.85 9.735.85s9.083 4.07 9.083 9.083c0 4.198-2.854 7.735-6.727 8.774l3.717 9.664h27.854l3.771-9.805c-3.629-1.191-6.252-4.608-6.252-8.633 0-5.013 4.07-9.083 9.083-9.083s9.084 4.07 9.084 9.083c0 4.897-3.885 8.895-8.738 9.077l-4.417 11.484a1.562 1.562 0 0 1-1.458 1.002h-13.49v9.573c4.425.608 7.838 4.408 7.838 8.998 0 5.014-4.07 9.084-9.083 9.084-5.014 0-9.084-4.07-9.084-9.084 0-4.37 3.092-8.021 7.204-8.888v-9.683H14.735a1.564 1.564 0 0 1-1.458-1.002l-4.43-11.521Zm.89-13.957a4.919 4.919 0 0 0-4.918 4.917 4.919 4.919 0 0 0 4.917 4.917 4.919 4.919 0 0 0 4.917-4.917 4.919 4.919 0 0 0-4.917-4.917Zm40.528 0a4.919 4.919 0 0 0-4.916 4.917 4.919 4.919 0 0 0 4.916 4.917 4.919 4.919 0 0 0 4.917-4.917 4.919 4.919 0 0 0-4.917-4.917ZM30 45.15a4.919 4.919 0 0 0-4.917 4.916A4.919 4.919 0 0 0 30 54.984a4.919 4.919 0 0 0 4.916-4.917A4.919 4.919 0 0 0 30 45.15Z"/></svg>