<svg xmlns="http://www.w3.org/2000/svg" xml:space="preserve" style="fill-rule:evenodd;clip-rule:evenodd;stroke-linejoin:round;stroke-miterlimit:2" viewBox="0 0 60 60"><path d="M0 0h60v60H0z" style="fill:none"/><clipPath id="a"><path d="M0 0h60v60H0z"/></clipPath><g clip-path="url(#a)"><path d="M27.122 27.046h2.504v53.126h-2.504z"/><path d="M11.512 34.033 3.75 35.502l-.85-6.029 6.994-2.406c.09 2.185.515 4.63 1.618 6.966Zm-.65-7.3 25.622-8.816c-.178 3.127.19 7.276 2.518 10.915l-26.482 5.01c-1.184-2.378-1.6-4.894-1.658-7.108Zm26.63-9.162L53.679 12l2.994 13.488-16.61 3.142c-2.516-3.668-2.81-7.963-2.571-11.06ZM37.43 15.642l12.063-5.706 1.243 2.089-12.873 4.577-.434-.96Z"/><path d="m27.364 26.817 2.422.632-13.413 51.405-2.423-.632z"/><path d="m29.544 26.817-2.422.632 13.413 51.405 2.423-.632zM3.261 29.467l1.433 5.897a.45.45 0 0 1-.33.543l-.876.213a.45.45 0 0 1-.543-.33l-1.433-5.897a.45.45 0 0 1 .33-.544l.875-.213a.45.45 0 0 1 .544.331ZM55.445 12.119l3.347 11.898a1.03 1.03 0 0 1-.712 1.27l-1.984.559a1.03 1.03 0 0 1-1.27-.713l-3.347-11.899a1.03 1.03 0 0 1 .713-1.27l1.983-.558a1.03 1.03 0 0 1 1.27.713Z"/></g></svg>